<svg xmlns="http://www.w3.org/2000/svg" viewBox="0 0 48 48" width="48" height="48"><path d="M 17.0 20.0 L 31.0 20.0 Q 33.0 20.0 33.0 22.0 L 33.0 30.0 Q 33.0 32.0 31.0 32.0 L 17.0 32.0 Q 15.0 32.0 15.0 30.0 L 15.0 22.0 Q 15.0 20.0 17.0 20.0 Z" fill="none" stroke="rgba(232,235,240,1.00)" stroke-width="1.4" stroke-linecap="round" stroke-linejoin="round"/><path d="M 20.0 20.0 L 21.0 17.0 L 27.0 17.0 L 28.0 20.0" fill="none" stroke="rgba(232,235,240,1.00)" stroke-width="1.2" stroke-linecap="round" stroke-linejoin="round"/><path d="M 20.5 26.0 a 3.5 3.5 0 1 0 7.0 0 a 3.5 3.5 0 1 0 -7.0 0 Z" fill="rgba(108,124,255,0.85)"/><path d="M 20.5 26.0 a 3.5 3.5 0 1 0 7.0 0 a 3.5 3.5 0 1 0 -7.0 0 Z" fill="none" stroke="rgba(232,235,240,1.00)" stroke-width="1.0" stroke-linecap="round" stroke-linejoin="round"/><path d="M 28.8 22.0 a 1.2 1.2 0 1 0 2.4 0 a 1.2 1.2 0 1 0 -2.4 0 Z" fill="rgba(220,80,80,1.00)"/></svg>