<svg xmlns="http://www.w3.org/2000/svg" viewBox="0 0 48 48" width="48" height="48"><path d="M 18.0 19.0 L 30.0 19.0 Q 32.0 19.0 32.0 21.0 L 32.0 23.0 Q 32.0 25.0 30.0 25.0 L 18.0 25.0 Q 16.0 25.0 16.0 23.0 L 16.0 21.0 Q 16.0 19.0 18.0 19.0 Z" fill="rgba(108,124,255,0.85)"/><path d="M 18.0 19.0 L 30.0 19.0 Q 32.0 19.0 32.0 21.0 L 32.0 23.0 Q 32.0 25.0 30.0 25.0 L 18.0 25.0 Q 16.0 25.0 16.0 23.0 L 16.0 21.0 Q 16.0 19.0 18.0 19.0 Z" fill="none" stroke="rgba(232,235,240,1.00)" stroke-width="1.2" stroke-linecap="round" stroke-linejoin="round"/><path d="M 19.4 20.0 L 20.599999999999998 20.0 L 20.599999999999998 24.0 L 19.4 24.0 Z" fill="rgba(232,235,240,1.00)"/><path d="M 23.4 20.0 L 24.599999999999998 20.0 L 24.599999999999998 24.0 L 23.4 24.0 Z" fill="rgba(232,235,240,1.00)"/><path d="M 27.4 20.0 L 28.599999999999998 20.0 L 28.599999999999998 24.0 L 27.4 24.0 Z" fill="rgba(232,235,240,1.00)"/><path d="M 23.0 25.0 L 23.0 29.0 L 26.0 29.0" fill="none" stroke="rgba(232,235,240,1.00)" stroke-width="1.3" stroke-linecap="round" stroke-linejoin="round"/><path d="M 28.0 30.0 a 1.0 1.6 0 1 0 2.0 0 a 1.0 1.6 0 1 0 -2.0 0 Z" fill="rgba(108,124,255,0.95)"/></svg>