<svg xmlns="http://www.w3.org/2000/svg" viewBox="0 0 48 48" width="48" height="48"><path d="M 19.0 20.0 L 32.0 20.0 L 32.0 33.0 L 19.0 33.0 Z" fill="rgba(108,124,255,0.85)"/><path d="M 16.0 17.0 L 29.0 17.0 L 29.0 30.0 L 16.0 30.0 Z" fill="none" stroke="rgba(232,235,240,0.50)" stroke-width="0.9" stroke-linecap="round" stroke-linejoin="round"/><path d="M 30.0 16.0 a 3 3 0 1 0 6 0 a 3 3 0 1 0 -6 0 Z" fill="rgba(255,230,130,1.00)"/><path d="M 30.0 16.0 a 3 3 0 1 0 6 0 a 3 3 0 1 0 -6 0 Z" fill="none" stroke="rgba(232,235,240,1.00)" stroke-width="0.9" stroke-linecap="round" stroke-linejoin="round"/><path d="M 37.5 16.0 L 39.5 16.0" fill="none" stroke="rgba(255,230,130,0.85)" stroke-width="0.9" stroke-linecap="round" stroke-linejoin="round"/><path d="M 35.25000344711338 19.897112326836105 L 36.25000497916377 21.629162249874373" fill="none" stroke="rgba(255,230,130,0.85)" stroke-width="0.9" stroke-linecap="round" stroke-linejoin="round"/><path d="M 30.750006894232037 19.897118297408568 L 29.750009958335166 21.629170874034596" fill="none" stroke="rgba(255,230,130,0.85)" stroke-width="0.9" stroke-linecap="round" stroke-linejoin="round"/><path d="M 28.500000000015845 16.00001194115407 L 26.500000000022887 16.00001724833366" fill="none" stroke="rgba(255,230,130,0.85)" stroke-width="0.9" stroke-linecap="round" stroke-linejoin="round"/><path d="M 30.749986211557047 12.1028936437638 L 29.74998008336018 10.370846374325488" fill="none" stroke="rgba(255,230,130,0.85)" stroke-width="0.9" stroke-linecap="round" stroke-linejoin="round"/><path d="M 35.2499827644067 12.102875732046416 L 36.24997510414302 10.370820501844822" fill="none" stroke="rgba(255,230,130,0.85)" stroke-width="0.9" stroke-linecap="round" stroke-linejoin="round"/></svg>