<svg xmlns="http://www.w3.org/2000/svg" viewBox="0 0 48 48" width="48" height="48"><path d="M 15 15 H 31 Q 33.5 15 33.5 17.5 V 19.5 Q 33.5 22 31 22 H 15 Q 12.5 22 12.5 19.5 V 17.5 Q 12.5 15 15 15 Z" fill="currentColor" fill-opacity="0.3"></path><path d="M 15 15 H 31 Q 33.5 15 33.5 17.5 V 19.5 Q 33.5 22 31 22 H 15 Q 12.5 22 12.5 19.5 V 17.5 Q 12.5 15 15 15 Z" fill="none" stroke="currentColor" stroke-width="1.6" stroke-opacity="1" stroke-linecap="round" stroke-linejoin="round"></path><path d="M 27 22 V 25 Q 27 26.5 25.5 26.5 H 20 V 30" fill="none" stroke="currentColor" stroke-width="1.6" stroke-opacity="1" stroke-linecap="round" stroke-linejoin="round"></path><path d="M 18 30 H 22 V 35 H 18 Z" fill="currentColor" fill-opacity="0.3"></path><path d="M 18 30 H 22 V 35 H 18 Z" fill="none" stroke="currentColor" stroke-width="1.6" stroke-opacity="1" stroke-linecap="round" stroke-linejoin="round"></path><path d="M 18 15.6 V 21.4 M 23 15.6 V 21.4 M 28 15.6 V 21.4" fill="none" stroke="currentColor" stroke-width="1" stroke-opacity="0.3" stroke-linecap="round" stroke-linejoin="round"></path></svg>