<svg xmlns="http://www.w3.org/2000/svg" viewBox="0 0 48 48" width="48" height="48"><path d="M 17 7.5 H 31 V 23 Q 31 25 29 25 H 19 Q 17 25 17 23 Z" fill="currentColor" fill-opacity="0.3"></path><path d="M 17 7.5 H 31 V 23 Q 31 25 29 25 H 19 Q 17 25 17 23 Z" fill="none" stroke="currentColor" stroke-width="1.6" stroke-opacity="1" stroke-linecap="round" stroke-linejoin="round"></path><path d="M 19.5 8 V 17 M 21.75 8 V 18 M 24 8 V 17 M 26.25 8 V 18 M 28.5 8 V 17" fill="none" stroke="currentColor" stroke-width="1.6" stroke-opacity="0.3" stroke-linecap="round" stroke-linejoin="round"></path><path d="M 17 20.5 H 31" fill="none" stroke="currentColor" stroke-width="1.6" stroke-opacity="0.3" stroke-linecap="round" stroke-linejoin="round"></path><path d="M 19.5 25 L 21 27 V 29 H 22.5 V 33.5 Q 22.5 35.5 24 35.5 Q 25.5 35.5 25.5 33.5 V 29 H 27 V 27 L 28.5 25 Z" fill="currentColor" fill-opacity="0.3"></path><path d="M 19.5 25 L 21 27 V 29 H 22.5 V 33.5 Q 22.5 35.5 24 35.5 Q 25.5 35.5 25.5 33.5 V 29 H 27 V 27 L 28.5 25 Z" fill="none" stroke="currentColor" stroke-width="1.6" stroke-opacity="1" stroke-linecap="round" stroke-linejoin="round"></path></svg>